<svg width="277" height="264" viewBox="0 0 277 264" fill="none" xmlns="http://www.w3.org/2000/svg">
<g clipPath="url(#clip0_302_15)">
<path d="M139.381 159.873C153.951 159.873 165.762 147.365 165.762 131.937C165.762 116.508 153.951 104 139.381 104C124.811 104 113 116.508 113 131.937C113 147.365 124.811 159.873 139.381 159.873Z" fill="white"/>
<path d="M138.5 194.857C211.349 194.857 270.405 166.715 270.405 132C270.405 97.2849 211.349 69.1428 138.5 69.1428C65.651 69.1428 6.59521 97.2849 6.59521 132C6.59521 166.715 65.651 194.857 138.5 194.857Z" stroke="white" stroke-width="3"/>
<path d="M87.0952 163.429C123.52 230.238 176.062 270.326 204.452 252.969C232.842 235.611 226.329 167.381 189.905 100.571C153.48 33.7623 100.938 -6.32617 72.5476 11.0314C44.1575 28.3889 50.6707 96.6194 87.0952 163.429Z" stroke="white" stroke-width="3"/>
<path d="M87.0952 100.571C50.6707 167.381 44.1576 235.611 72.5476 252.969C100.938 270.326 153.48 230.238 189.905 163.429C226.329 96.6195 232.842 28.3889 204.452 11.0314C176.062 -6.32614 123.52 33.7623 87.0952 100.571Z" stroke="white" stroke-width="3"/>
</g>
<defs>
<clipPath id="clip0_302_15">
<rect width="277" height="264" fill="white"/>
</clipPath>
</defs>
</svg>
