<svg width="208" height="313" viewBox="0 0 208 313" fill="none" xmlns="http://www.w3.org/2000/svg">
<path opacity="0.2" d="M54.5 45.5C115.804 45.5 165.5 95.1965 165.5 156.5C165.5 217.804 115.804 267.5 54.5 267.5L-149.5 267.5L-149.5 45.5L54.5 45.5Z" stroke="white" stroke-width="3"/>
<path opacity="0.2" d="M51.5 1.50003C137.104 1.50005 206.5 70.8959 206.5 156.5C206.5 242.104 137.104 311.5 51.4999 311.5L-149.5 311.5L-149.5 1.49998L51.5 1.50003Z" stroke="white" stroke-width="3"/>
<path opacity="0.2" d="M51.5 22.5C125.506 22.5 185.5 82.4939 185.5 156.5C185.5 230.506 125.506 290.5 51.4999 290.5L-149.5 290.5L-149.5 22.5L51.5 22.5Z" stroke="white" stroke-width="3"/>
</svg>
