<svg width="239" height="21" viewBox="0 0 239 21" fill="none" xmlns="http://www.w3.org/2000/svg">
<path d="M11.6475 11.2842L18.0195 1.51855C18.7113 1.55924 19.3664 1.61214 19.9849 1.67725C20.6034 1.73421 21.1445 1.79525 21.6084 1.86035C22.1536 1.93359 22.6582 2.00684 23.1221 2.08008V4.8877L20.8516 4.375V16.9727L23.1221 16.46V19.4873C22.2594 19.6582 21.409 19.7843 20.5708 19.8657C19.7326 19.9471 18.8822 20.0081 18.0195 20.0488V6.64551L11.6475 16.5332L5.17773 6.62109V20.0488C4.486 20.0081 3.83089 19.9593 3.2124 19.9023C2.59391 19.8454 2.05273 19.7843 1.58887 19.7192C1.04362 19.646 0.539062 19.5687 0.0751953 19.4873V16.46L2.3457 16.9727V4.35059L0.0751953 4.86328V2.05566C0.539062 1.98242 1.04362 1.90918 1.58887 1.83594C2.05273 1.77083 2.59391 1.7098 3.2124 1.65283C3.83089 1.58773 4.486 1.53483 5.17773 1.49414L11.6475 11.2842ZM35.6221 1.4209C36.8753 1.4209 38.2018 1.46566 39.6016 1.55518C41.0094 1.64469 42.4743 1.81966 43.9961 2.08008V5.18066C43.3125 4.98535 42.6208 4.82666 41.9209 4.70459C41.221 4.57438 40.5171 4.47266 39.8091 4.39941C39.1092 4.32617 38.4093 4.27327 37.7095 4.24072C37.0096 4.20817 36.3138 4.18783 35.6221 4.17969C35.2884 4.17969 34.9181 4.18783 34.5112 4.2041C34.1125 4.21224 33.6852 4.22852 33.2295 4.25293C32.7819 4.27734 32.3099 4.31396 31.8135 4.36279C31.3171 4.41162 30.8125 4.47266 30.2998 4.5459V8.98926H40.9688V11.9922H30.2998V16.8994C31.0892 17.0133 31.9111 17.0988 32.7656 17.1558C33.6201 17.2127 34.5723 17.2412 35.6221 17.2412C37.0381 17.2412 38.446 17.172 39.8457 17.0337C41.2454 16.8953 42.6289 16.6309 43.9961 16.2402V19.3408C42.4743 19.6012 41.0135 19.7762 39.6138 19.8657C38.214 19.9552 36.8997 20 35.6709 20C34.4176 20 33.0871 19.9552 31.6792 19.8657C30.2795 19.7762 28.8105 19.6012 27.2725 19.3408V2.08008C28.8105 1.81966 30.2795 1.64469 31.6792 1.55518C33.0789 1.46566 34.3932 1.4209 35.6221 1.4209ZM55.7393 1.39648C56.9681 1.39648 58.1278 1.50635 59.2183 1.72607C60.3088 1.9458 61.2609 2.25098 62.0747 2.6416C62.8966 3.03223 63.5477 3.50016 64.0278 4.04541C64.508 4.59066 64.748 5.1888 64.748 5.83984V7.81738H61.5742V6.76758C61.5742 6.41764 61.4399 6.08398 61.1714 5.7666C60.9028 5.44922 60.5163 5.16846 60.0117 4.92432C59.5153 4.68018 58.9049 4.48893 58.1807 4.35059C57.4645 4.2041 56.6507 4.13086 55.7393 4.13086C54.8604 4.13086 54.0628 4.20003 53.3467 4.33838C52.6305 4.47673 52.0161 4.6639 51.5034 4.8999C50.9907 5.1359 50.596 5.41667 50.3193 5.74219C50.0426 6.05957 49.9043 6.40137 49.9043 6.76758V14.6777C49.9043 15.0358 50.0426 15.3776 50.3193 15.7031C50.596 16.0205 50.9907 16.3013 51.5034 16.5454C52.0161 16.7814 52.6305 16.9686 53.3467 17.1069C54.0628 17.2453 54.8604 17.3145 55.7393 17.3145C56.6507 17.3145 57.4645 17.2453 58.1807 17.1069C58.9049 16.9604 59.5153 16.7651 60.0117 16.521C60.5163 16.2769 60.9028 15.9961 61.1714 15.6787C61.4399 15.3613 61.5742 15.0277 61.5742 14.6777V12.9199C60.8174 12.9199 60.1379 12.9403 59.5356 12.981C58.9416 13.0216 58.4329 13.0623 58.0098 13.103C57.5133 13.16 57.0739 13.221 56.6914 13.2861L57.0088 10.332C58.2539 10.2344 59.4258 10.1855 60.5244 10.1855C61.9974 10.1855 63.4053 10.2588 64.748 10.4053V15.6055C64.748 16.2565 64.508 16.8547 64.0278 17.3999C63.5477 17.937 62.8966 18.4009 62.0747 18.7915C61.2609 19.1821 60.3088 19.4873 59.2183 19.707C58.1278 19.9186 56.9681 20.0244 55.7393 20.0244C54.5104 20.0244 53.3507 19.9186 52.2603 19.707C51.1698 19.4873 50.2135 19.1821 49.3916 18.7915C48.5778 18.4009 47.9308 17.937 47.4507 17.3999C46.9705 16.8547 46.7305 16.2565 46.7305 15.6055V5.83984C46.7305 5.1888 46.9705 4.59066 47.4507 4.04541C47.9308 3.50016 48.5778 3.03223 49.3916 2.6416C50.2135 2.25098 51.1698 1.9458 52.2603 1.72607C53.3507 1.50635 54.5104 1.39648 55.7393 1.39648ZM76.5889 0.932617C77.0934 0.932617 77.6061 0.985514 78.127 1.09131C78.6478 1.18896 79.1117 1.32324 79.5186 1.49414C80.2347 2.7474 80.8857 4.02507 81.4717 5.32715C82.0658 6.62109 82.5947 7.95573 83.0586 9.33105C83.376 9.37174 83.6974 9.4165 84.0229 9.46533C84.3485 9.50602 84.6781 9.55078 85.0117 9.59961V12.7246L83.9619 12.4316C84.2549 13.6442 84.5031 14.8812 84.7065 16.1426C84.91 17.404 85.0605 18.6898 85.1582 20H82.2529C82.1309 18.6003 81.9274 17.2168 81.6426 15.8496C81.3577 14.4824 81.0322 13.1722 80.666 11.9189C79.8766 11.8538 79.1239 11.805 78.4077 11.7725C77.6997 11.7399 77.0934 11.7236 76.5889 11.7236C75.9134 11.7236 75.242 11.7358 74.5747 11.7603C73.9074 11.7847 73.236 11.8294 72.5605 11.8945C72.1943 13.1478 71.8647 14.458 71.5718 15.8252C71.2869 17.1924 71.0876 18.584 70.9736 20H68.0684C68.1579 18.6898 68.3003 17.408 68.4956 16.1548C68.6991 14.9015 68.9473 13.6686 69.2402 12.4561L68.2881 12.7246V9.59961L70.168 9.33105C70.6237 7.95573 71.1445 6.62109 71.7305 5.32715C72.3245 4.02507 72.9837 2.7474 73.708 1.49414C74.1149 1.32324 74.5747 1.18896 75.0874 1.09131C75.6001 0.985514 76.1006 0.932617 76.5889 0.932617ZM76.5889 8.96484C77.0771 8.96484 77.5817 8.97298 78.1025 8.98926C78.6234 8.9974 79.1605 9.02181 79.7139 9.0625C79.2988 7.93132 78.8879 6.95068 78.481 6.12061C78.0822 5.28239 77.7363 4.63542 77.4434 4.17969C77.2969 4.11458 77.1585 4.06982 77.0283 4.04541C76.8981 4.021 76.7516 4.00879 76.5889 4.00879C76.3285 4.00879 76.0599 4.06576 75.7832 4.17969C75.4902 4.63542 75.1403 5.28239 74.7334 6.12061C74.3265 6.95068 73.9196 7.93132 73.5127 9.0625C74.0498 9.02181 74.5747 8.9974 75.0874 8.98926C75.6082 8.97298 76.1087 8.96484 76.5889 8.96484ZM96.6816 1.22559C97.9349 1.22559 99.0498 1.33545 100.026 1.55518C101.011 1.7749 101.841 2.08008 102.517 2.4707C103.2 2.86133 103.721 3.33333 104.079 3.88672C104.437 4.43197 104.616 5.03418 104.616 5.69336V7.47559C104.616 8.17546 104.478 8.74105 104.201 9.17236C103.933 9.60368 103.558 9.94954 103.078 10.21C103.477 10.3239 103.843 10.4704 104.177 10.6494C104.519 10.8285 104.807 11.0482 105.043 11.3086C105.288 11.5609 105.475 11.8579 105.605 12.1997C105.743 12.5334 105.812 12.9199 105.812 13.3594V15.752C105.812 16.4111 105.572 17.0174 105.092 17.5708C104.612 18.116 103.957 18.5881 103.127 18.9868C102.297 19.3856 101.328 19.6948 100.222 19.9146C99.1149 20.1343 97.9349 20.2441 96.6816 20.2441C95.9818 20.2441 95.2656 20.2157 94.5332 20.1587C93.8008 20.1099 93.0887 20.0407 92.397 19.9512C91.7134 19.8617 91.0705 19.7599 90.4683 19.646C89.866 19.5321 89.3493 19.4141 88.918 19.292V2.15332C89.3493 2.03125 89.866 1.91732 90.4683 1.81152C91.0705 1.69759 91.7134 1.59993 92.397 1.51855C93.0887 1.42904 93.8008 1.35986 94.5332 1.31104C95.2656 1.25407 95.9818 1.22559 96.6816 1.22559ZM96.584 11.8945C96.1445 11.8945 95.7051 11.8986 95.2656 11.9067C94.8262 11.9067 94.3989 11.9189 93.9839 11.9434C93.577 11.9596 93.1864 11.9881 92.812 12.0288C92.4377 12.0695 92.0999 12.1224 91.7988 12.1875V16.8262C91.9616 16.8831 92.1691 16.9482 92.4214 17.0215C92.6818 17.0947 93.0073 17.1639 93.3979 17.229C93.7886 17.2941 94.2565 17.3511 94.8018 17.3999C95.347 17.4406 95.9899 17.4609 96.7305 17.4609C97.6419 17.4609 98.4598 17.3877 99.1841 17.2412C99.9165 17.0947 100.531 16.8994 101.027 16.6553C101.532 16.4111 101.918 16.1304 102.187 15.813C102.456 15.4875 102.59 15.1497 102.59 14.7998V13.75C102.59 13.3675 102.419 13.0542 102.077 12.8101C101.735 12.5659 101.284 12.3787 100.722 12.2485C100.161 12.1102 99.5177 12.0166 98.7935 11.9678C98.0773 11.9189 97.3408 11.8945 96.584 11.8945ZM91.7988 8.86719C92.3034 8.96484 92.8771 9.02995 93.52 9.0625C94.1711 9.09505 94.9076 9.11133 95.7295 9.11133C96.4375 9.11133 97.1414 9.08691 97.8413 9.03809C98.5412 8.98112 99.1719 8.8916 99.7334 8.76953C100.295 8.63932 100.751 8.46842 101.101 8.25684C101.451 8.03711 101.63 7.76042 101.638 7.42676V6.64551C101.638 6.29557 101.552 5.96191 101.381 5.64453C101.219 5.31901 100.942 5.03418 100.551 4.79004C100.169 4.5459 99.6642 4.35059 99.0376 4.2041C98.411 4.05762 97.6419 3.98438 96.7305 3.98438C95.9899 3.98438 95.347 4.00879 94.8018 4.05762C94.2565 4.09831 93.7886 4.1512 93.3979 4.21631C93.0073 4.28141 92.6818 4.35059 92.4214 4.42383C92.1691 4.49707 91.9616 4.56217 91.7988 4.61914V8.86719ZM117.751 1.10352C118.565 1.10352 119.354 1.15234 120.119 1.25C120.884 1.34766 121.6 1.49007 122.268 1.67725C122.935 1.85628 123.545 2.07601 124.099 2.33643C124.652 2.5887 125.124 2.8776 125.515 3.20312C125.905 3.52865 126.21 3.88672 126.43 4.27734C126.65 4.65983 126.76 5.06673 126.76 5.49805V15.9717C126.76 16.403 126.65 16.814 126.43 17.2046C126.21 17.5871 125.905 17.9411 125.515 18.2666C125.124 18.5921 124.652 18.8851 124.099 19.1455C123.545 19.3978 122.935 19.6175 122.268 19.8047C121.6 19.9837 120.884 20.1221 120.119 20.2197C119.354 20.3174 118.565 20.3662 117.751 20.3662C116.937 20.3662 116.148 20.3174 115.383 20.2197C114.626 20.1221 113.914 19.9837 113.247 19.8047C112.587 19.6175 111.981 19.3978 111.428 19.1455C110.874 18.8851 110.398 18.5921 110 18.2666C109.609 17.9411 109.304 17.5871 109.084 17.2046C108.872 16.814 108.767 16.403 108.767 15.9717V5.49805C108.767 5.06673 108.872 4.65983 109.084 4.27734C109.304 3.88672 109.609 3.52865 110 3.20312C110.398 2.8776 110.874 2.5887 111.428 2.33643C111.981 2.07601 112.587 1.85628 113.247 1.67725C113.914 1.49007 114.626 1.34766 115.383 1.25C116.148 1.15234 116.937 1.10352 117.751 1.10352ZM123.562 6.42578C123.562 6.07585 123.427 5.74626 123.159 5.43701C122.89 5.11963 122.504 4.84294 121.999 4.60693C121.503 4.36279 120.896 4.17155 120.18 4.0332C119.464 3.88672 118.654 3.81348 117.751 3.81348C116.88 3.81348 116.091 3.88265 115.383 4.021C114.675 4.1512 114.064 4.33431 113.552 4.57031C113.047 4.80632 112.657 5.08301 112.38 5.40039C112.103 5.71777 111.965 6.05957 111.965 6.42578V15.0439C111.965 15.402 112.103 15.7397 112.38 16.0571C112.657 16.3745 113.047 16.6512 113.552 16.8872C114.064 17.1232 114.675 17.3104 115.383 17.4487C116.091 17.5871 116.88 17.6562 117.751 17.6562C118.654 17.6562 119.464 17.5871 120.18 17.4487C120.896 17.3022 121.503 17.1069 121.999 16.8628C122.504 16.6187 122.89 16.342 123.159 16.0327C123.427 15.7153 123.562 15.3857 123.562 15.0439V6.42578ZM138.161 8.0127L141.799 1.54297C142.499 1.57552 143.158 1.62435 143.776 1.68945C144.395 1.74642 144.944 1.80745 145.424 1.87256C145.978 1.9458 146.494 2.02311 146.975 2.10449V5.20508C146.812 5.14811 146.592 5.08708 146.315 5.02197C146.047 4.95687 145.746 4.89176 145.412 4.82666C145.078 4.75342 144.729 4.68424 144.362 4.61914C143.996 4.55404 143.638 4.48893 143.288 4.42383L139.699 10.7959L143.288 17.168C143.638 17.111 143.996 17.05 144.362 16.9849C144.729 16.9116 145.078 16.8384 145.412 16.7651C145.746 16.6919 146.047 16.6227 146.315 16.5576C146.592 16.4925 146.812 16.4355 146.975 16.3867V19.4873C146.494 19.5687 145.978 19.646 145.424 19.7192C144.944 19.7843 144.395 19.8494 143.776 19.9146C143.158 19.9715 142.499 20.0163 141.799 20.0488L138.161 13.5791L134.499 20.0488C133.799 20.0163 133.136 19.9715 132.509 19.9146C131.891 19.8494 131.346 19.7843 130.874 19.7192C130.32 19.646 129.812 19.5687 129.348 19.4873V16.3867C129.494 16.4355 129.702 16.4925 129.97 16.5576C130.239 16.6227 130.54 16.6919 130.874 16.7651C131.207 16.8384 131.557 16.9116 131.923 16.9849C132.298 17.05 132.66 17.111 133.01 17.168L136.574 10.7959L133.01 4.42383C132.66 4.48893 132.298 4.55404 131.923 4.61914C131.557 4.68424 131.207 4.75342 130.874 4.82666C130.54 4.89176 130.239 4.95687 129.97 5.02197C129.702 5.08708 129.494 5.14811 129.348 5.20508V2.10449C129.812 2.02311 130.32 1.9458 130.874 1.87256C131.346 1.80745 131.891 1.74642 132.509 1.68945C133.136 1.62435 133.799 1.57552 134.499 1.54297L138.161 8.0127ZM168.142 1.44531C169.403 1.44531 170.729 1.49007 172.121 1.57959C173.513 1.66911 174.978 1.84408 176.516 2.10449V5.20508C175.97 5.05046 175.348 4.90397 174.648 4.76562C174.046 4.65169 173.321 4.54183 172.475 4.43604C171.629 4.33024 170.673 4.26107 169.606 4.22852V20.0244H166.701V4.22852C165.635 4.26107 164.679 4.33024 163.833 4.43604C162.986 4.54183 162.262 4.65169 161.66 4.76562C160.96 4.90397 160.337 5.05046 159.792 5.20508V2.10449C161.314 1.84408 162.779 1.66911 164.187 1.57959C165.594 1.49007 166.913 1.44531 168.142 1.44531ZM187.429 1.4209C188.682 1.4209 190.008 1.46566 191.408 1.55518C192.816 1.64469 194.281 1.81966 195.803 2.08008V5.18066C195.119 4.98535 194.427 4.82666 193.728 4.70459C193.028 4.57438 192.324 4.47266 191.616 4.39941C190.916 4.32617 190.216 4.27327 189.516 4.24072C188.816 4.20817 188.12 4.18783 187.429 4.17969C187.095 4.17969 186.725 4.18783 186.318 4.2041C185.919 4.21224 185.492 4.22852 185.036 4.25293C184.589 4.27734 184.117 4.31396 183.62 4.36279C183.124 4.41162 182.619 4.47266 182.106 4.5459V8.98926H192.775V11.9922H182.106V16.8994C182.896 17.0133 183.718 17.0988 184.572 17.1558C185.427 17.2127 186.379 17.2412 187.429 17.2412C188.845 17.2412 190.253 17.172 191.652 17.0337C193.052 16.8953 194.436 16.6309 195.803 16.2402V19.3408C194.281 19.6012 192.82 19.7762 191.42 19.8657C190.021 19.9552 188.706 20 187.478 20C186.224 20 184.894 19.9552 183.486 19.8657C182.086 19.7762 180.617 19.6012 179.079 19.3408V2.08008C180.617 1.81966 182.086 1.64469 183.486 1.55518C184.886 1.46566 186.2 1.4209 187.429 1.4209ZM207.326 1.0791C208.555 1.0791 209.719 1.18896 210.817 1.40869C211.916 1.62028 212.872 1.92139 213.686 2.31201C214.508 2.70264 215.159 3.17057 215.639 3.71582C216.119 4.25293 216.359 4.84701 216.359 5.49805V7.64648H213.137V6.4502C213.137 6.10026 213.002 5.7666 212.734 5.44922C212.465 5.1237 212.079 4.84294 211.574 4.60693C211.078 4.36279 210.472 4.17155 209.755 4.0332C209.039 3.88672 208.229 3.81348 207.326 3.81348C206.455 3.81348 205.662 3.88265 204.946 4.021C204.23 4.1512 203.615 4.33431 203.103 4.57031C202.59 4.80632 202.191 5.08708 201.906 5.4126C201.63 5.72998 201.491 6.07585 201.491 6.4502V15.0684C201.491 15.4264 201.63 15.7642 201.906 16.0815C202.191 16.3989 202.59 16.6756 203.103 16.9116C203.615 17.1395 204.23 17.3226 204.946 17.4609C205.662 17.5911 206.455 17.6562 207.326 17.6562C208.229 17.6562 209.039 17.5871 209.755 17.4487C210.472 17.3022 211.078 17.111 211.574 16.875C212.079 16.639 212.465 16.3664 212.734 16.0571C213.002 15.7397 213.137 15.4102 213.137 15.0684V13.8477H216.359V15.9961C216.359 16.4274 216.25 16.8384 216.03 17.229C215.81 17.6115 215.501 17.9655 215.102 18.291C214.711 18.6165 214.239 18.9095 213.686 19.1699C213.141 19.4222 212.53 19.6419 211.855 19.8291C211.188 20.0081 210.472 20.1465 209.707 20.2441C208.942 20.3418 208.148 20.3906 207.326 20.3906C206.504 20.3906 205.711 20.3418 204.946 20.2441C204.181 20.1465 203.461 20.0081 202.785 19.8291C202.118 19.6419 201.507 19.4222 200.954 19.1699C200.409 18.9095 199.937 18.6165 199.538 18.291C199.147 17.9655 198.842 17.6115 198.623 17.229C198.403 16.8384 198.293 16.4274 198.293 15.9961V5.49805C198.293 5.06673 198.403 4.65576 198.623 4.26514C198.842 3.87451 199.147 3.51644 199.538 3.19092C199.937 2.8654 200.409 2.57243 200.954 2.31201C201.507 2.0516 202.118 1.83187 202.785 1.65283C203.461 1.46566 204.181 1.32324 204.946 1.22559C205.711 1.12793 206.504 1.0791 207.326 1.0791ZM224.855 9.28223H233.059V1.61621C233.758 1.64062 234.418 1.68132 235.036 1.73828C235.655 1.79525 236.204 1.85628 236.684 1.92139C237.237 1.99463 237.754 2.07194 238.234 2.15332V5.27832C237.917 5.18066 237.567 5.09115 237.185 5.00977C236.802 4.92025 236.403 4.83887 235.988 4.76562V16.8506C236.883 16.7041 237.632 16.5332 238.234 16.3379V19.4385C237.648 19.5361 237.111 19.6175 236.623 19.6826C236.135 19.7477 235.683 19.8006 235.268 19.8413C234.853 19.882 234.462 19.9146 234.096 19.939C233.738 19.9634 233.392 19.9837 233.059 20V12.2363H224.855V20C224.522 19.9837 224.172 19.9634 223.806 19.939C223.448 19.9146 223.061 19.882 222.646 19.8413C222.231 19.8006 221.779 19.7477 221.291 19.6826C220.803 19.6175 220.266 19.5361 219.68 19.4385V16.3379C219.997 16.4355 220.339 16.5291 220.705 16.6187C221.079 16.7 221.486 16.7773 221.926 16.8506V4.76562C221.079 4.91211 220.331 5.08301 219.68 5.27832V2.15332C220.144 2.07194 220.656 1.99463 221.218 1.92139C221.69 1.85628 222.239 1.79525 222.866 1.73828C223.492 1.68132 224.156 1.64062 224.855 1.61621V9.28223Z" fill="white"/>
</svg>
