<svg width="334" height="46" viewBox="0 0 334 46" fill="none" xmlns="http://www.w3.org/2000/svg">
<path d="M9.90244 35V11.735L0.902441 12.185V3.14H29.0274V12.185L19.8024 11.735V27.8L20.2974 32.3L19.8024 35H9.90244ZM39.1957 35.45C35.5357 35.45 32.6257 34.58 30.4657 32.84C28.3057 31.1 27.2257 28.28 27.2257 24.38C27.2257 20.45 28.3057 17.63 30.4657 15.92C32.6257 14.18 35.5357 13.31 39.1957 13.31C42.9757 13.31 45.9007 14.18 47.9707 15.92C50.0407 17.63 51.0757 20.45 51.0757 24.38C51.0757 28.28 50.0407 31.1 47.9707 32.84C45.9007 34.58 42.9757 35.45 39.1957 35.45ZM39.1957 28.25C39.7657 28.25 40.2307 28.025 40.5907 27.575C40.9507 27.095 41.1307 26.03 41.1307 24.38C41.1307 22.7 40.9507 21.635 40.5907 21.185C40.2607 20.735 39.7957 20.51 39.1957 20.51C38.6257 20.51 38.1457 20.735 37.7557 21.185C37.3657 21.635 37.1707 22.7 37.1707 24.38C37.1707 26.03 37.3657 27.095 37.7557 27.575C38.1457 28.025 38.6257 28.25 39.1957 28.25ZM54.6897 45.935V21.41L53.7897 16.46L55.1847 13.715H63.6897V15.65L64.1397 15.875C64.1397 15.875 64.3347 15.65 64.7247 15.2C65.1147 14.75 65.6997 14.315 66.4797 13.895C67.2897 13.445 68.3247 13.22 69.5847 13.22C72.2547 13.22 74.3397 14.075 75.8397 15.785C77.3697 17.495 78.1347 20.195 78.1347 23.885C78.1347 26.645 77.7447 28.88 76.9647 30.59C76.2147 32.27 75.1947 33.485 73.9047 34.235C72.6147 34.985 71.1747 35.36 69.5847 35.36C67.7247 35.36 66.4197 35.195 65.6697 34.865C64.9497 34.505 64.5897 34.325 64.5897 34.325V45.935H54.6897ZM65.7597 27.755C66.4797 27.755 67.0647 27.485 67.5147 26.945C67.9947 26.405 68.2347 25.52 68.2347 24.29C68.2347 23.24 67.9797 22.445 67.4697 21.905C66.9897 21.335 66.1797 21.05 65.0397 21.05L64.5897 21.5V27.17C64.5897 27.17 64.6797 27.275 64.8597 27.485C65.0697 27.665 65.3697 27.755 65.7597 27.755Z" fill="#323232"/>
<path d="M107.557 35.45C105.487 35.45 103.477 35.21 101.527 34.73C99.6067 34.25 97.8817 33.41 96.3517 32.21C94.8217 31.01 93.6067 29.345 92.7067 27.215C91.8067 25.085 91.3567 22.37 91.3567 19.07C91.3567 16.1 91.7917 13.58 92.6617 11.51C93.5317 9.41 94.7167 7.715 96.2167 6.425C97.7167 5.135 99.4417 4.19 101.392 3.59C103.342 2.99 105.397 2.69 107.557 2.69C109.087 2.69 110.572 2.81 112.012 3.05C113.482 3.29 114.547 3.56 115.207 3.86L120.652 8.405L116.152 15.83L107.557 11.87C106.537 11.87 105.577 12.155 104.677 12.725C103.807 13.265 103.087 14.075 102.517 15.155C101.977 16.205 101.707 17.51 101.707 19.07C101.707 21.05 102.007 22.58 102.607 23.66C103.237 24.71 104.122 25.43 105.262 25.82C106.432 26.21 107.812 26.405 109.402 26.405C110.932 26.405 112.372 26.255 113.722 25.955C115.102 25.625 116.317 25.25 117.367 24.83C118.417 24.41 119.212 24.05 119.752 23.75V32.75C119.152 33.05 118.297 33.425 117.187 33.875C116.107 34.295 114.757 34.67 113.137 35C111.547 35.3 109.687 35.45 107.557 35.45ZM130.095 35.45C128.085 35.45 126.45 34.985 125.19 34.055C123.96 33.095 123.345 31.43 123.345 29.06C123.345 26.87 124.065 25.22 125.505 24.11C126.975 22.97 128.955 22.4 131.445 22.4C132.795 22.4 133.875 22.535 134.685 22.805C135.495 23.045 136.11 23.285 136.53 23.525L136.845 23.3C136.845 22.37 136.68 21.68 136.35 21.23C136.02 20.75 135.225 20.51 133.965 20.51C132.855 20.51 131.715 20.63 130.545 20.87C129.405 21.08 128.325 21.365 127.305 21.725C126.285 22.055 125.415 22.415 124.695 22.805V14.705C125.175 14.555 125.94 14.375 126.99 14.165C128.04 13.955 129.3 13.775 130.77 13.625C132.24 13.445 133.815 13.355 135.495 13.355C138.315 13.355 140.55 13.7 142.2 14.39C143.85 15.05 145.02 16.025 145.71 17.315C146.43 18.575 146.79 20.09 146.79 21.86V27.845L147.69 32.39L146.79 35.045H137.295V32.84L136.845 32.615C136.365 33.305 135.54 33.95 134.37 34.55C133.23 35.15 131.805 35.45 130.095 35.45ZM135.18 29.555C135.63 29.555 136.005 29.48 136.305 29.33C136.605 29.18 136.785 29.09 136.845 29.06V28.07C136.845 27.62 136.71 27.23 136.44 26.9C136.17 26.57 135.765 26.405 135.225 26.405C134.745 26.405 134.295 26.54 133.875 26.81C133.455 27.05 133.245 27.485 133.245 28.115C133.245 29.075 133.89 29.555 135.18 29.555ZM160.592 35.45C157.952 35.45 156.017 34.91 154.787 33.83C153.557 32.75 152.942 31.175 152.942 29.105V20.645H149.207V15.02L152.492 12.815L155.687 7.235H162.797V13.76H169.547V20.96H162.797V27.89L169.547 27.845V34.1C169.547 34.1 169.277 34.175 168.737 34.325C168.197 34.445 167.477 34.595 166.577 34.775C165.707 34.955 164.747 35.105 163.697 35.225C162.647 35.375 161.612 35.45 160.592 35.45ZM184.181 35.45C181.871 35.45 179.771 35.12 177.881 34.46C176.021 33.77 174.536 32.63 173.426 31.04C172.346 29.42 171.806 27.2 171.806 24.38C171.806 22.4 172.136 20.705 172.796 19.295C173.486 17.885 174.401 16.745 175.541 15.875C176.681 14.975 177.956 14.33 179.366 13.94C180.776 13.52 182.231 13.31 183.731 13.31C185.621 13.31 187.196 13.43 188.456 13.67C189.746 13.91 190.781 14.18 191.561 14.48C192.341 14.78 192.941 15.05 193.361 15.29L195.611 22.445L194.711 25.235H181.661C181.781 26.075 182.216 26.795 182.966 27.395C183.716 27.965 185.021 28.25 186.881 28.25C188.651 28.25 190.121 28.055 191.291 27.665C192.461 27.275 193.301 26.975 193.811 26.765V33.695C193.211 34.025 192.386 34.325 191.336 34.595C190.286 34.865 189.131 35.075 187.871 35.225C186.641 35.375 185.411 35.45 184.181 35.45ZM181.526 22.31L186.116 21.455L185.711 20.015C185.291 19.775 184.781 19.655 184.181 19.655C183.191 19.655 182.486 19.925 182.066 20.465C181.676 21.005 181.496 21.62 181.526 22.31ZM208.457 45.935C207.977 45.935 207.347 45.92 206.567 45.89C205.817 45.89 205.082 45.86 204.362 45.8C203.642 45.77 203.072 45.74 202.652 45.71L197.162 43.055L199.412 35.855L207.377 38.15C208.997 38.15 210.092 37.82 210.662 37.16C211.262 36.53 211.562 35.645 211.562 34.505V33.65L211.112 33.425C210.692 33.845 210.107 34.28 209.357 34.73C208.637 35.15 207.422 35.36 205.712 35.36C204.302 35.36 202.937 35.015 201.617 34.325C200.297 33.605 199.217 32.465 198.377 30.905C197.567 29.345 197.162 27.32 197.162 24.83C197.162 22.04 197.582 19.805 198.422 18.125C199.262 16.415 200.327 15.17 201.617 14.39C202.937 13.61 204.302 13.22 205.712 13.22C206.942 13.22 207.992 13.445 208.862 13.895C209.732 14.345 210.332 14.78 210.662 15.2V13.715H220.607L221.057 16.415L220.562 19.115L220.607 34.955C220.607 37.535 220.097 39.635 219.077 41.255C218.087 42.875 216.677 44.06 214.847 44.81C213.047 45.56 210.917 45.935 208.457 45.935ZM209.987 27.98C210.107 27.98 210.212 27.98 210.302 27.98C210.422 27.98 210.542 27.965 210.662 27.935V21.32C210.602 21.23 210.467 21.14 210.257 21.05C210.077 20.96 209.822 20.915 209.492 20.915C208.892 20.915 208.337 21.14 207.827 21.59C207.317 22.04 207.062 22.955 207.062 24.335C207.062 25.625 207.362 26.555 207.962 27.125C208.562 27.665 209.237 27.95 209.987 27.98ZM235.719 35.45C232.059 35.45 229.149 34.58 226.989 32.84C224.829 31.1 223.749 28.28 223.749 24.38C223.749 20.45 224.829 17.63 226.989 15.92C229.149 14.18 232.059 13.31 235.719 13.31C239.499 13.31 242.424 14.18 244.494 15.92C246.564 17.63 247.599 20.45 247.599 24.38C247.599 28.28 246.564 31.1 244.494 32.84C242.424 34.58 239.499 35.45 235.719 35.45ZM235.719 28.25C236.289 28.25 236.754 28.025 237.114 27.575C237.474 27.095 237.654 26.03 237.654 24.38C237.654 22.7 237.474 21.635 237.114 21.185C236.784 20.735 236.319 20.51 235.719 20.51C235.149 20.51 234.669 20.735 234.279 21.185C233.889 21.635 233.694 22.7 233.694 24.38C233.694 26.03 233.889 27.095 234.279 27.575C234.669 28.025 235.149 28.25 235.719 28.25ZM251.258 35V20.915L250.313 16.415L251.258 13.715H259.178L260.078 14.75C260.078 14.75 260.243 14.63 260.573 14.39C260.933 14.12 261.428 13.865 262.058 13.625C262.688 13.385 263.423 13.265 264.263 13.265C264.863 13.265 265.463 13.31 266.063 13.4C266.663 13.49 267.128 13.61 267.458 13.76L272.183 18.035L268.358 24.245L262.418 20.87L261.068 21.32V35H251.258ZM279.535 12.455L272.875 6.695L279.535 0.979998L286.195 6.695L279.535 12.455ZM274.54 35V20.105L273.595 16.505L274.495 13.76H284.44V35H274.54ZM299.449 35.45C297.139 35.45 295.039 35.12 293.149 34.46C291.289 33.77 289.804 32.63 288.694 31.04C287.614 29.42 287.074 27.2 287.074 24.38C287.074 22.4 287.404 20.705 288.064 19.295C288.754 17.885 289.669 16.745 290.809 15.875C291.949 14.975 293.224 14.33 294.634 13.94C296.044 13.52 297.499 13.31 298.999 13.31C300.889 13.31 302.464 13.43 303.724 13.67C305.014 13.91 306.049 14.18 306.829 14.48C307.609 14.78 308.209 15.05 308.629 15.29L310.879 22.445L309.979 25.235H296.929C297.049 26.075 297.484 26.795 298.234 27.395C298.984 27.965 300.289 28.25 302.149 28.25C303.919 28.25 305.389 28.055 306.559 27.665C307.729 27.275 308.569 26.975 309.079 26.765V33.695C308.479 34.025 307.654 34.325 306.604 34.595C305.554 34.865 304.399 35.075 303.139 35.225C301.909 35.375 300.679 35.45 299.449 35.45ZM296.794 22.31L301.384 21.455L300.979 20.015C300.559 19.775 300.049 19.655 299.449 19.655C298.459 19.655 297.754 19.925 297.334 20.465C296.944 21.005 296.764 21.62 296.794 22.31ZM323.456 35.45C320.906 35.45 318.821 35.24 317.201 34.82C315.581 34.37 314.276 33.89 313.286 33.38V25.775C314.546 26.525 316.001 27.125 317.651 27.575C319.301 28.025 320.786 28.25 322.106 28.25C322.586 28.25 322.916 28.19 323.096 28.07C323.276 27.95 323.366 27.77 323.366 27.53C323.366 27.29 323.066 27.035 322.466 26.765C321.896 26.465 320.906 26.105 319.496 25.685C318.386 25.325 317.321 24.935 316.301 24.515C315.281 24.095 314.456 23.54 313.826 22.85C313.196 22.16 312.881 21.245 312.881 20.105C312.881 18.365 313.316 17 314.186 16.01C315.086 15.02 316.316 14.33 317.876 13.94C319.466 13.52 321.266 13.31 323.276 13.31C324.416 13.31 325.556 13.37 326.696 13.49C327.866 13.61 328.661 13.7 329.081 13.76L333.266 16.01L331.241 22.175L324.221 20.465C323.261 20.465 322.781 20.69 322.781 21.14C322.781 21.65 323.471 22.085 324.851 22.445C326.261 22.835 327.641 23.255 328.991 23.705C330.341 24.155 331.451 24.77 332.321 25.55C333.191 26.3 333.626 27.35 333.626 28.7C333.626 30.98 332.726 32.675 330.926 33.785C329.126 34.895 326.636 35.45 323.456 35.45Z" fill="#2AAA94"/>
</svg>
